<?xml version="1.0" encoding="utf-8" ?>
<svg baseProfile="tiny" height="45px" version="1.2" width="45px" xmlns="http://www.w3.org/2000/svg" xmlns:ev="http://www.w3.org/2001/xml-events" xmlns:xlink="http://www.w3.org/1999/xlink"><defs /><rect fill="rgb(0%,0%,0%)" height="45" width="45" x="0" y="0" /><rect fill="rgb(100%,100%,100%)" height="10" width="10" x="1" y="1" /><rect fill="rgb(100%,100%,100%)" height="10" width="10" x="12" y="1" /><rect fill="rgb(100%,100%,100%)" height="10" width="10" x="23" y="1" /><rect fill="rgb(100%,100%,100%)" height="10" width="10" x="34" y="1" /><rect fill="rgb(100%,100%,100%)" height="10" width="10" x="1" y="12" /><rect fill="rgb(100%,100%,100%)" height="10" width="10" x="12" y="12" /><rect fill="rgb(100%,100%,100%)" height="10" width="10" x="23" y="12" /><rect fill="rgb(100%,100%,100%)" height="10" width="10" x="34" y="12" /><rect fill="rgb(100%,100%,100%)" height="10" width="10" x="1" y="23" /><rect fill="rgb(0%,0%,0%)" height="10" width="10" x="12" y="23" /><rect fill="rgb(100%,100%,100%)" height="10" width="10" x="23" y="23" /><rect fill="rgb(100%,100%,100%)" height="10" width="10" x="34" y="23" /><rect fill="rgb(100%,100%,100%)" height="10" width="10" x="1" y="34" /><rect fill="rgb(100%,100%,100%)" height="10" width="10" x="12" y="34" /><rect fill="rgb(0%,0%,0%)" height="10" width="10" x="23" y="34" /><rect fill="rgb(100%,100%,100%)" height="10" width="10" x="34" y="34" /></svg>